<svg id="Jambo-logo" xmlns="http://www.w3.org/2000/svg" width="71.771" height="50" viewBox="0 0 71.771 50">
  <path id="Path_796" data-name="Path 796" d="M62.741.05,9.71,5.815A10.886,10.886,0,0,0,0,16.637V36.824a4.812,4.812,0,0,0,4.811,4.811H7.992l4.862-.089H40.873L39.278,50l7.013-8.454h4.169a10.057,10.057,0,0,0,9.093-5.759l11.426-24.17A8.138,8.138,0,0,0,62.741.05" transform="translate(0 0)" fill="#14b1c6"/>
  <path id="Union_11" data-name="Union 11" d="M.686,29.747A2.434,2.434,0,0,1,0,27.947a5.937,5.937,0,0,1,1.2-3.305,21.864,21.864,0,0,1,4.516-4.33L5.868,19.2q.306-2.094.481-4.123.13-1.179.414-3.513a1.325,1.325,0,0,1,.48-.927,2,2,0,0,1,1.2-.295,1.315,1.315,0,0,1,.862.2.711.711,0,0,1,.207.545,54.222,54.222,0,0,1-.72,5.542L8.574,18.13q1.344-1.007,2.505-1.806a7.087,7.087,0,0,1,.767-2.568,6.888,6.888,0,0,1,2.149-2.508,4.845,4.845,0,0,1,2.848-.95.851.851,0,0,1,.643.185,1.561,1.561,0,0,1,.273.665,5.186,5.186,0,0,1,.961-.087q1.068,0,1.069.764a16.426,16.426,0,0,1-.328,2.181,21.191,21.191,0,0,0-.5,3.491.794.794,0,0,0,.163.523.529.529,0,0,0,.426.2,1.657,1.657,0,0,0,1-.535,14.533,14.533,0,0,0,1.076-1.13,17.658,17.658,0,0,1,.8-4.989,1.648,1.648,0,0,1,.643-.927,2.274,2.274,0,0,1,1.255-.295,1.233,1.233,0,0,1,.611.109.451.451,0,0,1,.175.414,8.311,8.311,0,0,1-.327,1.572q-.218.872-.349,1.516a15.118,15.118,0,0,0-.217,1.6,11.756,11.756,0,0,1,1.406-2.879,6.626,6.626,0,0,1,1.68-1.756,2.95,2.95,0,0,1,1.625-.578,1.409,1.409,0,0,1,1.079.349,1.558,1.558,0,0,1,.317,1.07,13.827,13.827,0,0,1-.415,2.53c-.116.523-.2.916-.24,1.178a10.814,10.814,0,0,1,2.422-3.905,3.84,3.84,0,0,1,2.487-1.222A1.254,1.254,0,0,1,36,11.759a17.544,17.544,0,0,1-.48,3.076,15.177,15.177,0,0,0-.414,2.509q0,.873.632.873a1.7,1.7,0,0,0,1.036-.535A15.739,15.739,0,0,0,38.1,16.266a15.428,15.428,0,0,1-.144-2.194,29.767,29.767,0,0,1,.7-6.12A19.126,19.126,0,0,1,40.7,2.323Q42.039,0,43.894,0a1.889,1.889,0,0,1,1.614.862A3.786,3.786,0,0,1,46.119,3.1a9.9,9.9,0,0,1-.676,3.556A13.986,13.986,0,0,1,43.2,10.363a3.288,3.288,0,0,1,2.378,1.211,4.974,4.974,0,0,1,1.091,2.715,10.765,10.765,0,0,0,1.391-.2,6.015,6.015,0,0,1,.365-1.015,5.025,5.025,0,0,1,1.69-2.03,4.164,4.164,0,0,1,2.4-.731,3.744,3.744,0,0,1,2.2.643,3.975,3.975,0,0,1,1.374,1.691,5.553,5.553,0,0,1,.458,2.247,6.656,6.656,0,0,1-.632,2.956A5.064,5.064,0,0,1,54.2,19.886a4.167,4.167,0,0,1-2.389.731,3.684,3.684,0,0,1-2.193-.643,3.986,3.986,0,0,1-1.363-1.691,5.438,5.438,0,0,1-.439-1.84,11.142,11.142,0,0,1-1.328.138A5.653,5.653,0,0,1,44.843,19.5a3.864,3.864,0,0,1-2.673,1.113,3.455,3.455,0,0,1-3.206-1.679,5.149,5.149,0,0,1-.24-.456,9.247,9.247,0,0,1-1.582,1.393,4.228,4.228,0,0,1-2.454.742,2.12,2.12,0,0,1-1.68-.643,2.736,2.736,0,0,1-.567-1.865,13.6,13.6,0,0,1,.305-2.182,11.284,11.284,0,0,0,.284-1.9c0-.232-.081-.349-.24-.349-.19,0-.458.243-.808.731a10.724,10.724,0,0,0-1.047,1.931,15.615,15.615,0,0,0-.85,2.531,3.343,3.343,0,0,1-.557,1.4,1.312,1.312,0,0,1-1.015.349,1.155,1.155,0,0,1-1.079-.687,3.565,3.565,0,0,1-.36-1.669,18.834,18.834,0,0,1,.218-2.4q.175-1.4.175-1.833c0-.232-.079-.349-.24-.349q-.327,0-.828.785a11.288,11.288,0,0,0-.971,2.007,19.376,19.376,0,0,0-.753,2.4,3.412,3.412,0,0,1-.555,1.384,1.258,1.258,0,0,1-.993.36,1.191,1.191,0,0,1-1.167-.873,3.6,3.6,0,0,1-.158-.55,9.845,9.845,0,0,1-.77.659,3.233,3.233,0,0,1-1.942.764,2.04,2.04,0,0,1-1.32-.491,2.992,2.992,0,0,1-.905-1.342,3.315,3.315,0,0,1-2.857,1.833,2.652,2.652,0,0,1-2.16-.982,3.32,3.32,0,0,1-.577-1.056q-1.3.871-3.109,2.126a26.31,26.31,0,0,1-2.2,7.134q-1.353,2.6-3.448,2.6A2.463,2.463,0,0,1,.686,29.747Zm2.182-4.3a3.9,3.9,0,0,0-.731,2.017q0,.851.611.851.567,0,1.243-1.287a16.928,16.928,0,0,0,1.266-4.145A12.343,12.343,0,0,0,2.868,25.449ZM15.457,13.014a4.621,4.621,0,0,0-1.233,1.756,5.907,5.907,0,0,0-.459,2.312,1.544,1.544,0,0,0,.273,1,.926.926,0,0,0,.753.328,1.2,1.2,0,0,0,.917-.568,3.679,3.679,0,0,0,.633-1.5l.807-4.014A2.639,2.639,0,0,0,15.457,13.014Zm25.829.371a4.146,4.146,0,0,0-.6,2.366,3.232,3.232,0,0,0,.469,1.9,1.345,1.345,0,0,0,1.1.655,1.59,1.59,0,0,0,1.2-.568,3.093,3.093,0,0,0,.7-1.636,3,3,0,0,1-1.035-1.2,3.54,3.54,0,0,1-.361-1.571,5.415,5.415,0,0,1,.087-.829h-.065A1.763,1.763,0,0,0,41.287,13.385Zm9.752.087a4.416,4.416,0,0,0-.513,2.367,3.09,3.09,0,0,0,.437,1.833,1.313,1.313,0,0,0,1.091.589,1.48,1.48,0,0,0,1.255-.808,4.426,4.426,0,0,0,.512-2.356,3.109,3.109,0,0,0-.436-1.811,1.266,1.266,0,0,0-1.047-.611A1.51,1.51,0,0,0,51.038,13.472Zm-8.6-10.014a20.921,20.921,0,0,0-.948,3.524,44.327,44.327,0,0,0-.655,4.865q1.441-2.64,2.3-4.658A9.308,9.308,0,0,0,44,3.6a2.752,2.752,0,0,0-.163-1.069c-.109-.248-.258-.371-.446-.371Q42.955,2.16,42.442,3.458ZM6.959,8.476A1.544,1.544,0,0,1,6.5,7.287,1.611,1.611,0,0,1,7.1,6.01,2.22,2.22,0,0,1,8.6,5.5,2.068,2.068,0,0,1,9.9,5.89,1.334,1.334,0,0,1,10.407,7a1.775,1.775,0,0,1-.568,1.385,2.156,2.156,0,0,1-1.5.512A1.957,1.957,0,0,1,6.959,8.476Z" transform="translate(4.446 7.143)" fill="#fff" stroke="rgba(0,0,0,0)" stroke-miterlimit="10" stroke-width="1"/>
</svg>
